<svg width="40" height="41" viewBox="0 0 40 41" fill="none" xmlns="http://www.w3.org/2000/svg">
<circle cx="20" cy="20.7998" r="19.5" stroke="#FF7C40"/>
<path d="M14.2109 14.4248V25.7998H12.25V14.4248H14.2109ZM18.8516 19.4014V20.9561H13.7109V19.4014H18.8516ZM19.5 14.4248V15.9873H13.7109V14.4248H19.5ZM20.8828 13.7998H22.7656V23.9951L22.5859 25.7998H20.8828V13.7998ZM28.2812 21.4951V21.6592C28.2812 22.2842 28.2109 22.8597 28.0703 23.3857C27.9349 23.9066 27.7266 24.3597 27.4453 24.7451C27.1693 25.1305 26.8255 25.43 26.4141 25.6436C26.0078 25.8519 25.5365 25.9561 25 25.9561C24.474 25.9561 24.0156 25.8571 23.625 25.6592C23.2344 25.4613 22.9062 25.18 22.6406 24.8154C22.3802 24.4508 22.1693 24.016 22.0078 23.5107C21.8464 23.0055 21.7318 22.4482 21.6641 21.8389V21.3154C21.7318 20.7008 21.8464 20.1436 22.0078 19.6436C22.1693 19.1383 22.3802 18.7035 22.6406 18.3389C22.9062 17.9691 23.2318 17.6852 23.6172 17.4873C24.0078 17.2894 24.4635 17.1904 24.9844 17.1904C25.526 17.1904 26.0026 17.2946 26.4141 17.5029C26.8307 17.7113 27.1771 18.0081 27.4531 18.3936C27.7292 18.7738 27.9349 19.2269 28.0703 19.7529C28.2109 20.279 28.2812 20.8597 28.2812 21.4951ZM26.3984 21.6592V21.4951C26.3984 21.1149 26.3672 20.7581 26.3047 20.4248C26.2422 20.0863 26.138 19.7894 25.9922 19.5342C25.8516 19.279 25.6589 19.0785 25.4141 18.9326C25.1745 18.7816 24.875 18.7061 24.5156 18.7061C24.1823 18.7061 23.8958 18.7633 23.6562 18.8779C23.4167 18.9925 23.2161 19.1488 23.0547 19.3467C22.8932 19.5446 22.7656 19.7738 22.6719 20.0342C22.5833 20.2946 22.5234 20.5758 22.4922 20.8779V22.292C22.5391 22.6826 22.638 23.042 22.7891 23.3701C22.9453 23.693 23.1641 23.9535 23.4453 24.1514C23.7266 24.3441 24.0885 24.4404 24.5312 24.4404C24.8802 24.4404 25.1745 24.3701 25.4141 24.2295C25.6536 24.0889 25.8438 23.8936 25.9844 23.6436C26.1302 23.3883 26.2344 23.0915 26.2969 22.7529C26.3646 22.4144 26.3984 22.0498 26.3984 21.6592Z" fill="#FF7C40"/>
</svg>
