<svg width="40" height="41" viewBox="0 0 40 41" fill="none" xmlns="http://www.w3.org/2000/svg">
<circle cx="20" cy="20.7998" r="19.5" stroke="#FF7C40"/>
<path d="M16.4453 14.4248V25.7998H14.4844V14.4248H16.4453ZM24.1094 17.3467H25.8203V25.5654C25.8203 26.3258 25.6589 26.9717 25.3359 27.5029C25.013 28.0342 24.5625 28.4378 23.9844 28.7139C23.4062 28.9951 22.737 29.1357 21.9766 29.1357C21.6536 29.1357 21.2943 29.0889 20.8984 28.9951C20.5078 28.9014 20.1276 28.7503 19.7578 28.542C19.3932 28.3389 19.0885 28.0706 18.8438 27.7373L19.7266 26.6279C20.0286 26.9873 20.362 27.2503 20.7266 27.417C21.0911 27.5837 21.474 27.667 21.875 27.667C22.3073 27.667 22.6745 27.5863 22.9766 27.4248C23.2839 27.2686 23.5208 27.0368 23.6875 26.7295C23.8542 26.4222 23.9375 26.0472 23.9375 25.6045V19.2607L24.1094 17.3467ZM18.3672 21.667V21.5029C18.3672 20.8623 18.4453 20.279 18.6016 19.7529C18.7578 19.2217 18.9818 18.766 19.2734 18.3857C19.5651 18.0003 19.9193 17.7061 20.3359 17.5029C20.7526 17.2946 21.224 17.1904 21.75 17.1904C22.2969 17.1904 22.763 17.2894 23.1484 17.4873C23.5391 17.6852 23.8646 17.9691 24.125 18.3389C24.3854 18.7035 24.5885 19.141 24.7344 19.6514C24.8854 20.1566 24.9974 20.7191 25.0703 21.3389V21.8623C25.0026 22.4665 24.888 23.0186 24.7266 23.5186C24.5651 24.0186 24.3516 24.4508 24.0859 24.8154C23.8203 25.18 23.4922 25.4613 23.1016 25.6592C22.7161 25.8571 22.2604 25.9561 21.7344 25.9561C21.2188 25.9561 20.7526 25.8493 20.3359 25.6357C19.9245 25.4222 19.5703 25.1227 19.2734 24.7373C18.9818 24.3519 18.7578 23.8988 18.6016 23.3779C18.4453 22.8519 18.3672 22.2816 18.3672 21.667ZM20.25 21.5029V21.667C20.25 22.0524 20.2865 22.4118 20.3594 22.7451C20.4375 23.0785 20.5547 23.3727 20.7109 23.6279C20.8724 23.8779 21.0755 24.0758 21.3203 24.2217C21.5703 24.3623 21.8646 24.4326 22.2031 24.4326C22.6458 24.4326 23.0078 24.3389 23.2891 24.1514C23.5755 23.9639 23.7943 23.7113 23.9453 23.3936C24.1016 23.0706 24.2109 22.7113 24.2734 22.3154V20.9014C24.2422 20.5941 24.1771 20.3076 24.0781 20.042C23.9844 19.7764 23.8568 19.5446 23.6953 19.3467C23.5339 19.1436 23.3307 18.9873 23.0859 18.8779C22.8411 18.7633 22.5521 18.7061 22.2188 18.7061C21.8802 18.7061 21.5859 18.779 21.3359 18.9248C21.0859 19.0706 20.8802 19.2712 20.7188 19.5264C20.5625 19.7816 20.4453 20.0785 20.3672 20.417C20.2891 20.7555 20.25 21.1175 20.25 21.5029Z" fill="#FF7C40"/>
</svg>
